<?xml version="1.0" standalone="no"?>
<!DOCTYPE svg PUBLIC "-//W3C//DTD SVG 20010904//EN"
 "http://www.w3.org/TR/2001/REC-SVG-20010904/DTD/svg10.dtd">
<svg version="1.0" xmlns="http://www.w3.org/2000/svg"
 width="252.000000pt" height="252.000000pt" viewBox="0 0 252.000000 252.000000"
 preserveAspectRatio="xMidYMid meet">
<metadata>
Created by potrace 1.11, written by Peter Selinger 2001-2013
</metadata>
<g transform="translate(0.000000,252.000000) scale(0.100000,-0.100000)"
fill="#000000" stroke="none">
<path d="M0 1260 l0 -1260 1260 0 1260 0 0 1260 0 1260 -1260 0 -1260 0 0
-1260z m1460 1135 c178 -44 244 -69 359 -137 34 -21 67 -38 72 -38 5 0 9 -3 9
-7 0 -5 17 -19 37 -33 79 -53 175 -147 238 -235 24 -33 50 -67 57 -75 23 -28
104 -193 125 -255 50 -146 58 -202 58 -395 0 -161 -4 -197 -24 -280 -26 -101
-90 -270 -103 -270 -4 0 -8 -8 -8 -19 0 -10 -7 -24 -15 -31 -8 -7 -15 -18 -15
-24 0 -7 -13 -27 -30 -46 -16 -19 -29 -38 -30 -42 0 -9 -37 -53 -105 -125 -61
-64 -196 -170 -270 -210 -80 -45 -166 -85 -188 -88 -12 -2 -42 -11 -66 -20
-322 -118 -763 -37 -1071 199 -81 62 -240 224 -240 244 0 6 -4 12 -8 14 -20 8
-142 241 -142 271 0 10 -7 28 -15 41 -15 23 -28 72 -46 181 -6 33 -15 64 -20
69 -12 14 -12 233 1 241 5 3 10 17 10 31 0 33 28 169 45 219 47 140 110 273
145 305 3 3 25 32 49 65 72 98 207 223 316 293 56 35 226 112 249 112 8 0 39
8 68 19 67 24 132 40 183 45 80 8 311 -4 375 -19z"/>
<path d="M1155 2278 c-482 -31 -879 -388 -970 -874 -22 -117 -16 -323 14 -440
106 -424 462 -743 895 -803 476 -67 956 214 1132 661 89 227 98 510 23 730
-127 369 -443 647 -811 712 -116 20 -157 23 -283 14z m304 -173 c22 -22 16
-78 -13 -122 -30 -44 -227 -245 -234 -239 -16 17 30 81 116 162 84 80 96 94
86 111 -35 56 -463 -27 -787 -154 -54 -20 -96 -42 -94 -48 2 -5 91 -81 198
-167 125 -101 199 -155 209 -152 8 3 49 11 91 16 l76 10 -14 42 c-8 22 -18 95
-22 161 -7 110 -6 122 11 148 11 15 21 27 22 27 4 0 41 -100 52 -139 5 -19 3
-23 -10 -18 -14 5 -16 -2 -16 -48 0 -76 31 -150 86 -206 44 -45 45 -48 39 -93
-4 -25 -10 -46 -14 -46 -4 0 -18 12 -32 26 -13 14 -32 30 -41 35 -29 16 -108
27 -135 20 -25 -7 -23 -10 52 -76 42 -39 112 -110 154 -160 70 -81 123 -126
135 -114 3 2 -2 152 -9 333 -12 289 -12 332 1 357 8 16 17 29 19 29 13 0 80
-208 70 -218 -3 -3 -14 3 -26 14 l-22 19 7 -95 c3 -52 8 -157 12 -233 6 -128
8 -137 23 -123 20 19 91 49 98 42 14 -14 -67 -66 -102 -66 -17 0 -21 -55 -6
-79 12 -18 63 -8 103 21 l31 21 -6 106 c-3 58 -11 234 -17 391 -6 157 -15 321
-19 364 -7 65 -6 86 7 113 9 18 18 33 22 33 8 0 39 -81 60 -160 18 -65 17 -90
-1 -57 -20 35 -28 15 -24 -60 8 -128 26 -574 27 -655 1 -62 -3 -83 -23 -119
-29 -53 -80 -89 -125 -89 l-34 0 0 -52 c0 -113 -42 -259 -80 -283 -13 -8 -13
1 5 59 10 32 15 91 15 166 l0 116 -36 17 c-20 10 -57 41 -83 69 -88 97 -204
218 -207 215 -2 -2 8 -25 21 -52 44 -86 28 -187 -37 -229 -13 -8 -69 -26 -126
-41 -161 -40 -282 -90 -330 -135 -40 -38 -26 -158 25 -213 52 -54 138 -81 221
-70 42 6 44 7 78 80 l35 73 -20 29 -20 28 29 28 c15 15 32 25 37 22 13 -8 123
80 123 98 0 7 -4 17 -10 20 -24 15 -1 95 28 95 28 -1 34 -20 27 -84 -4 -37
-12 -65 -17 -64 -5 2 -34 -21 -64 -50 -45 -44 -53 -56 -43 -68 10 -12 6 -23
-18 -57 -37 -52 -76 -127 -66 -127 25 0 200 77 252 110 78 50 82 66 42 169
-17 44 -31 91 -31 104 0 13 -5 28 -11 34 -12 12 -4 78 10 88 5 3 30 -23 56
-58 42 -56 44 -62 26 -65 -12 -2 -21 -4 -21 -6 0 -1 11 -31 25 -66 46 -117 26
-198 -63 -257 -71 -46 -189 -104 -252 -124 -53 -16 -55 -18 -58 -55 -3 -49 15
-85 51 -102 48 -23 90 0 204 112 57 56 130 117 163 137 54 33 260 109 296 109
11 0 13 9 7 43 -20 114 2 201 60 232 60 32 110 -11 123 -107 9 -64 -12 -126
-57 -172 -38 -38 -39 -39 -22 -58 51 -56 133 -61 184 -12 27 26 29 31 24 93
-18 241 -38 615 -44 841 -6 225 -5 270 8 298 8 17 18 32 22 32 9 0 69 -183 69
-212 -1 -21 -2 -22 -14 -5 -7 9 -16 17 -19 17 -3 0 -3 -33 -1 -72 9 -161 24
-674 23 -809 0 -85 -5 -156 -12 -174 -34 -87 -80 -125 -151 -125 -67 0 -120
35 -162 106 -11 18 -12 18 -70 0 -32 -10 -101 -34 -152 -53 -87 -34 -99 -42
-215 -149 -67 -63 -137 -121 -156 -130 -92 -44 -201 38 -201 151 l0 35 -84 0
c-45 0 -98 5 -117 11 -96 32 -143 108 -143 227 1 39 -1 72 -2 72 -2 0 -20 -11
-40 -25 -45 -31 -72 -31 -114 -2 -59 40 -75 71 -75 145 0 59 5 76 39 137 28
51 34 70 25 74 -30 9 -78 69 -89 109 -6 23 -8 59 -4 80 7 41 46 123 75 161 15
18 17 34 13 80 -7 73 22 132 89 181 44 33 47 38 47 81 0 87 32 109 273 188
387 127 657 175 706 126z m320 -138 c10 -34 22 -82 26 -107 7 -41 6 -43 -9
-31 -9 8 -18 12 -19 10 -8 -11 19 -349 28 -349 12 0 12 5 1 43 -11 36 7 77 33
77 29 0 33 -14 26 -85 -5 -44 -11 -62 -19 -59 -27 10 -41 -29 -47 -130 -4 -76
-11 -111 -27 -141 l-21 -40 -1 113 c0 61 -4 112 -9 112 -5 0 -25 -7 -44 -15
-42 -18 -47 -18 -47 -6 0 5 21 22 46 38 l46 28 -6 85 c-3 47 -9 162 -12 255
-4 94 -10 177 -14 185 -10 17 26 93 40 85 5 -3 18 -34 29 -68z m319 -354 c30
-76 53 -153 45 -153 -3 0 -12 8 -20 18 -12 15 -13 -9 -6 -173 4 -104 8 -257 8
-340 0 -145 -1 -152 -29 -208 -15 -32 -29 -57 -31 -55 -2 2 2 38 8 80 8 60 7
138 -6 360 -10 155 -17 317 -17 359 0 41 -5 80 -11 86 -7 7 -5 21 7 47 10 20
20 36 24 36 3 0 16 -26 28 -57z m-368 -468 l24 -25 23 22 23 22 35 -34 c41
-40 43 -49 12 -78 l-23 -21 -27 25 c-28 25 -36 26 -69 2 -15 -10 -22 -8 -48
17 -36 34 -37 42 -8 72 27 29 29 29 58 -2z m-762 -247 c-8 -24 -65 -53 -180
-92 -114 -38 -116 -39 -105 -63 8 -18 7 -27 -2 -36 -10 -9 -16 -7 -32 12 -42
52 -20 72 146 136 146 55 180 64 173 43z"/>
<path d="M455 1665 c-36 -56 -57 -125 -38 -125 6 0 22 9 36 20 34 27 38 25 26
-7 -12 -34 -58 -83 -76 -83 -19 0 -82 -99 -99 -155 -20 -69 -18 -102 11 -130
47 -48 128 -28 224 53 61 53 212 162 249 181 13 7 22 16 20 20 -4 10 -297 275
-309 279 -4 2 -25 -22 -44 -53z m191 -121 c3 -13 1 -38 -5 -55 -6 -18 -11 -45
-11 -61 0 -19 -4 -27 -11 -22 -6 3 -31 -14 -55 -40 -51 -53 -134 -99 -171 -94
-22 3 -17 8 39 45 35 22 83 59 108 81 42 37 44 41 32 66 -18 40 -15 64 12 91
29 29 53 24 62 -11z"/>
<path d="M788 1332 c-37 -26 -119 -85 -182 -130 -64 -46 -137 -92 -163 -102
-42 -15 -52 -25 -80 -78 -43 -82 -51 -140 -27 -189 16 -31 25 -39 52 -41 37
-4 59 8 147 81 82 68 156 101 336 148 158 41 189 57 189 94 0 40 -165 265
-193 265 -7 0 -42 -22 -79 -48z m76 -148 l21 26 42 -33 c23 -17 42 -34 43 -37
0 -3 -9 -20 -20 -38 l-21 -34 -35 27 -35 27 -23 -21 c-28 -27 -34 -26 -74 8
l-34 29 24 35 23 36 33 -26 34 -26 22 27z"/>
</g>
</svg>
