<?xml version="1.0" standalone="no"?>
<!DOCTYPE svg PUBLIC "-//W3C//DTD SVG 20010904//EN"
 "http://www.w3.org/TR/2001/REC-SVG-20010904/DTD/svg10.dtd">
<svg version="1.0" xmlns="http://www.w3.org/2000/svg"
 width="124.000000pt" height="124.000000pt" viewBox="0 0 124.000000 124.000000"
 preserveAspectRatio="xMidYMid meet">
<metadata>
Created by potrace 1.11, written by Peter Selinger 2001-2013
</metadata>
<g transform="translate(0.000000,124.000000) scale(0.100000,-0.100000)"
fill="#000000" stroke="none">
<path d="M535 1130 c-204 -36 -365 -187 -416 -390 -71 -281 109 -565 396 -625
87 -18 122 -18 208 0 290 61 469 343 398 625 -56 223 -238 377 -466 394 -38 2
-92 1 -120 -4z m222 -38 c58 -19 139 -62 116 -62 -7 0 -19 -12 -26 -27 l-14
-27 -16 30 c-21 37 -21 27 -2 -19 19 -46 19 -68 0 -43 -14 18 -15 15 -14 -37
1 -31 6 -54 10 -51 5 3 9 11 9 19 0 8 5 17 11 21 8 4 9 -1 4 -16 -5 -15 -2
-25 6 -31 11 -7 11 -11 1 -21 -10 -10 -15 -10 -23 2 -6 10 -8 -30 -7 -120 3
-149 -7 -183 -56 -196 -21 -5 -25 -14 -31 -64 -4 -32 -12 -66 -19 -75 -9 -13
-11 -1 -8 57 l3 73 -75 78 c-77 79 -101 96 -72 52 22 -33 20 -78 -3 -99 -11
-10 -50 -25 -88 -35 -122 -32 -161 -63 -148 -121 9 -43 49 -70 101 -70 38 0
44 4 58 31 9 17 13 42 10 54 -4 18 2 26 33 42 28 15 38 27 39 45 1 32 12 50
26 42 16 -10 -1 -56 -30 -83 -15 -14 -26 -29 -24 -34 1 -5 -7 -24 -19 -43 -12
-19 -19 -38 -15 -41 8 -8 136 56 142 72 3 7 -4 41 -16 75 -26 78 -20 108 15
65 12 -17 19 -32 15 -35 -5 -3 -4 -23 2 -46 17 -63 5 -89 -55 -124 -28 -17
-69 -35 -89 -42 -34 -10 -37 -14 -31 -37 9 -38 12 -41 37 -41 15 0 47 22 87
60 59 56 113 86 193 106 21 5 23 10 19 45 -10 68 31 117 68 83 26 -23 25 -84
-2 -118 -25 -32 -12 -56 31 -56 53 0 54 5 39 306 -8 161 -10 284 -5 297 8 21
9 20 23 -12 19 -44 29 -102 14 -81 -14 19 -13 29 -1 -236 11 -235 6 -277 -41
-303 -38 -21 -98 0 -111 39 -5 16 -131 -33 -174 -67 -22 -17 -52 -45 -68 -62
-50 -52 -114 -38 -131 30 -6 23 -13 27 -57 31 -69 7 -103 41 -103 103 0 43 -7
56 -20 35 -12 -20 -54 -10 -75 17 -24 30 -21 77 6 118 14 21 13 25 -10 49 -32
31 -33 64 -4 119 12 23 21 51 19 62 -1 12 13 41 31 65 18 25 31 52 30 60 -7
41 66 78 235 120 51 13 90 27 87 31 -6 11 -30 6 -150 -32 -103 -33 -115 -35
-108 -16 9 24 66 59 133 83 84 30 203 32 288 6z m138 -124 c10 -34 12 -54 5
-56 -6 -2 -10 -38 -10 -83 0 -52 4 -78 10 -74 6 4 8 11 5 16 -9 13 5 50 16 44
15 -10 10 -62 -6 -69 -10 -3 -15 -19 -15 -48 0 -39 1 -40 15 -22 13 18 14 18
8 -5 -4 -14 -1 -26 8 -32 10 -6 11 -11 3 -19 -9 -9 -16 -6 -27 10 l-14 21 -9
-23 c-6 -18 -8 -12 -11 30 -3 45 -6 52 -18 42 -8 -7 -20 -10 -27 -7 -8 3 -2
10 15 17 l28 13 -6 86 c-3 47 -8 107 -10 132 -10 89 16 106 40 27z"/>
<path d="M745 1011 c-5 -24 -113 -141 -130 -141 -14 0 21 49 62 87 46 43 49
63 10 63 -20 -1 -21 -1 -4 -11 18 -10 18 -12 1 -30 -19 -21 -44 -25 -44 -8 0
5 -4 7 -10 4 -5 -3 -10 -13 -10 -21 0 -9 5 -12 11 -8 7 4 10 1 7 -7 -9 -26
-33 -15 -33 13 1 18 -3 24 -9 18 -6 -6 -20 -10 -33 -10 -13 0 -23 -4 -23 -9 0
-4 -12 -8 -27 -7 -23 1 -29 -4 -31 -24 -2 -20 -1 -22 8 -10 9 13 11 12 8 -5
-5 -33 -33 -24 -33 10 0 29 4 33 75 64 23 11 22 11 -10 6 -49 -7 -230 -66
-230 -74 0 -4 24 -25 52 -46 29 -22 69 -55 89 -72 33 -30 41 -32 82 -27 l45 6
-6 42 c-17 107 0 174 26 103 15 -42 15 -50 0 -41 -8 5 -9 -4 -4 -35 7 -44 31
-91 47 -91 5 0 9 -14 9 -30 l0 -31 -29 22 c-16 12 -39 19 -53 17 -24 -3 -21
-8 53 -87 44 -46 81 -82 83 -80 2 2 1 74 -3 159 -6 143 -5 158 14 198 22 47
50 53 50 12 0 -19 -5 -25 -22 -24 -27 1 -28 -5 -8 -53 18 -43 19 -57 3 -50
-10 3 -12 -24 -10 -124 3 -115 5 -129 21 -129 9 0 25 6 35 13 17 13 18 24 7
203 -7 104 -13 208 -14 231 -2 49 -13 56 -22 14z"/>
<path d="M261 834 c-31 -40 -25 -74 7 -42 9 9 12 9 12 -1 0 -6 -15 -26 -34
-44 -56 -53 -73 -110 -41 -137 22 -18 53 -6 132 54 39 29 77 56 85 59 8 4 -11
28 -57 71 -38 37 -72 66 -76 66 -4 0 -17 -12 -28 -26z"/>
<path d="M380 654 c-41 -30 -91 -64 -110 -74 -40 -21 -56 -43 -65 -92 -5 -26
-2 -39 10 -51 19 -20 32 -15 101 38 28 22 71 40 127 55 117 31 117 30 89 84
-13 24 -36 55 -50 69 l-27 26 -75 -55z"/>
</g>
</svg>
